<svg width="27" height="28" viewBox="0 0 27 28" fill="none" xmlns="http://www.w3.org/2000/svg">
<path d="M13.5001 27.3327C6.13608 27.3327 0.166748 21.3633 0.166748 13.9993C0.166748 6.63535 6.13608 0.666016 13.5001 0.666016C20.8641 0.666016 26.8334 6.63535 26.8334 13.9993C26.8334 21.3633 20.8641 27.3327 13.5001 27.3327ZM13.5001 24.666C16.3291 24.666 19.0422 23.5422 21.0426 21.5418C23.0429 19.5414 24.1667 16.8283 24.1667 13.9993C24.1667 11.1704 23.0429 8.45726 21.0426 6.45688C19.0422 4.45649 16.3291 3.33268 13.5001 3.33268C10.6711 3.33268 7.958 4.45649 5.95761 6.45688C3.95722 8.45726 2.83341 11.1704 2.83341 13.9993C2.83341 16.8283 3.95722 19.5414 5.95761 21.5418C7.958 23.5422 10.6711 24.666 13.5001 24.666ZM8.83342 16.666H16.1667C16.3436 16.666 16.5131 16.5958 16.6382 16.4708C16.7632 16.3457 16.8334 16.1762 16.8334 15.9993C16.8334 15.8225 16.7632 15.653 16.6382 15.5279C16.5131 15.4029 16.3436 15.3327 16.1667 15.3327H10.8334C9.94936 15.3327 9.10151 14.9815 8.47639 14.3564C7.85127 13.7313 7.50008 12.8834 7.50008 11.9993C7.50008 11.1153 7.85127 10.2674 8.47639 9.64233C9.10151 9.01721 9.94936 8.66602 10.8334 8.66602H12.1667V5.99935H14.8334V8.66602H18.1667V11.3327H10.8334C10.6566 11.3327 10.487 11.4029 10.362 11.5279C10.237 11.653 10.1667 11.8225 10.1667 11.9993C10.1667 12.1762 10.237 12.3457 10.362 12.4708C10.487 12.5958 10.6566 12.666 10.8334 12.666H16.1667C17.0508 12.666 17.8986 13.0172 18.5238 13.6423C19.1489 14.2674 19.5001 15.1153 19.5001 15.9993C19.5001 16.8834 19.1489 17.7313 18.5238 18.3564C17.8986 18.9815 17.0508 19.3327 16.1667 19.3327H14.8334V21.9993H12.1667V19.3327H8.83342V16.666Z" fill="#6B8089"/>
</svg>
