<svg width="49" height="48" viewBox="0 0 49 48" fill="none" xmlns="http://www.w3.org/2000/svg">
<rect x="0.5" width="48" height="48" rx="24" fill="#2CC25F" fill-opacity="0.1"/>
<path d="M21.465 30C21.3461 30.8343 20.9302 31.5977 20.2937 32.1499C19.6571 32.7022 18.8427 33.0063 18 33.0063C17.1573 33.0063 16.3429 32.7022 15.7063 32.1499C15.0698 31.5977 14.6539 30.8343 14.535 30H13.5V18C13.5 17.7348 13.6054 17.4804 13.7929 17.2929C13.9804 17.1054 14.2348 17 14.5 17H28.5C28.7652 17 29.0196 17.1054 29.2071 17.2929C29.3946 17.4804 29.5 17.7348 29.5 18V20H32.5L35.5 24.056V30H33.465C33.3461 30.8343 32.9302 31.5977 32.2937 32.1499C31.6571 32.7022 30.8427 33.0063 30 33.0063C29.1573 33.0063 28.3429 32.7022 27.7063 32.1499C27.0698 31.5977 26.6539 30.8343 26.535 30H21.465ZM27.5 19H15.5V27.05C15.8946 26.6472 16.3806 26.3457 16.9168 26.1711C17.4529 25.9966 18.0233 25.9541 18.5794 26.0474C19.1355 26.1407 19.6608 26.3669 20.1106 26.7069C20.5604 27.0469 20.9215 27.4905 21.163 28H26.837C27.005 27.647 27.23 27.326 27.5 27.05V19ZM29.5 25H33.5V24.715L31.492 22H29.5V25ZM30 31C30.398 31 30.7796 30.8419 31.061 30.5605C31.3424 30.2791 31.5005 29.8975 31.5005 29.4995C31.5005 29.1015 31.3424 28.7199 31.061 28.4385C30.7796 28.1571 30.398 27.999 30 27.999C29.602 27.999 29.2204 28.1571 28.939 28.4385C28.6576 28.7199 28.4995 29.1015 28.4995 29.4995C28.4995 29.8975 28.6576 30.2791 28.939 30.5605C29.2204 30.8419 29.602 31 30 31ZM19.5 29.5C19.5 29.303 19.4612 29.108 19.3858 28.926C19.3104 28.744 19.1999 28.5786 19.0607 28.4393C18.9214 28.3001 18.756 28.1896 18.574 28.1142C18.392 28.0388 18.197 28 18 28C17.803 28 17.608 28.0388 17.426 28.1142C17.244 28.1896 17.0786 28.3001 16.9393 28.4393C16.8001 28.5786 16.6896 28.744 16.6142 28.926C16.5388 29.108 16.5 29.303 16.5 29.5C16.5 29.8978 16.658 30.2794 16.9393 30.5607C17.2206 30.842 17.6022 31 18 31C18.3978 31 18.7794 30.842 19.0607 30.5607C19.342 30.2794 19.5 29.8978 19.5 29.5Z" fill="#2CC25F"/>
</svg>
