<svg width="34" height="14" viewBox="0 0 34 14" fill="none" xmlns="http://www.w3.org/2000/svg">
<path fill-rule="evenodd" clip-rule="evenodd" d="M15.7438 10.763V6.85014H17.7633C18.5909 6.85014 19.2893 6.57285 19.8587 6.02597L19.9954 5.88733C21.0355 4.75506 20.9672 2.99119 19.8587 1.94365C19.3045 1.38907 18.5453 1.08868 17.7633 1.10408H14.5215V10.763H15.7438ZM15.744 5.66388V2.29019H17.7941C18.2346 2.29019 18.6522 2.45964 18.9635 2.76774C19.6241 3.41475 19.6393 4.4931 19.0015 5.16322C18.6902 5.49443 18.2497 5.67929 17.7941 5.66388H15.744ZM25.6971 4.6703C25.1733 4.18505 24.4596 3.93857 23.5561 3.93857C22.3945 3.93857 21.5214 4.36991 20.9444 5.22488L22.0225 5.91041C22.4173 5.32502 22.9564 5.03232 23.6396 5.03232C24.0724 5.03232 24.49 5.19407 24.8164 5.48677C25.1353 5.76406 25.3175 6.16459 25.3175 6.58823V6.87322C24.8468 6.61133 24.2546 6.47269 23.5258 6.47269C22.6754 6.47269 21.9922 6.67295 21.4835 7.08119C20.9748 7.48942 20.7167 8.02859 20.7167 8.71412C20.7015 9.33802 20.9672 9.93111 21.4379 10.3316C21.9162 10.763 22.5236 10.9786 23.2373 10.9786C24.08 10.9786 24.7481 10.6012 25.2568 9.84638H25.3099V10.763H26.4791V6.68836C26.4791 5.83338 26.221 5.15556 25.6971 4.6703ZM22.3796 9.54601C22.129 9.36115 21.9771 9.06075 21.9771 8.73724C21.9771 8.37523 22.1442 8.07483 22.4707 7.83605C22.8048 7.59728 23.2224 7.47404 23.716 7.47404C24.3994 7.46633 24.9309 7.62038 25.3106 7.92848C25.3106 8.45225 25.1056 8.9067 24.7031 9.29182C24.3386 9.66154 23.8451 9.86951 23.3287 9.86951C22.987 9.87721 22.6529 9.76168 22.3796 9.54601ZM29.106 13.6668L33.1905 4.15423H31.8619L29.9715 8.89896H29.9487L28.0127 4.15423H26.6841L29.3641 10.3393L27.8457 13.6668H29.106Z" fill="white"/>
<path d="M11.524 6.00347C11.524 5.62605 11.4936 5.24863 11.4329 4.87891H6.27783V7.0125H9.23116C9.10969 7.69802 8.7149 8.31422 8.1379 8.69934V10.0858H9.89927C10.9318 9.12298 11.524 7.69802 11.524 6.00347Z" fill="#4285F4"/>
<path d="M6.27821 11.4262C7.75108 11.4262 8.99619 10.9333 9.89965 10.086L8.13828 8.69953C7.64479 9.03844 7.01465 9.231 6.27821 9.231C4.8509 9.231 3.64375 8.25278 3.211 6.94336H1.39648V8.37602C2.32272 10.2477 4.21316 11.4262 6.27821 11.4262Z" fill="#34A853"/>
<path d="M3.21096 6.94343C2.98316 6.25791 2.98316 5.51076 3.21096 4.81754V3.39258H1.39615C0.614042 4.95618 0.614042 6.80478 1.39615 8.36839L3.21096 6.94343Z" fill="#FBBC04"/>
<path d="M6.27821 2.52953C7.0602 2.51413 7.81182 2.81452 8.37364 3.3614L9.93761 1.77469C8.94304 0.834982 7.6372 0.318915 6.27821 0.33432C4.21316 0.33432 2.32272 1.5205 1.39648 3.39221L3.211 4.82488C3.64375 3.50775 4.8509 2.52953 6.27821 2.52953Z" fill="#EA4335"/>
</svg>
