<svg width="21" height="18" viewBox="0 0 21 18" fill="none" xmlns="http://www.w3.org/2000/svg">
<path d="M1.83337 0H19.8334C20.0986 0 20.3529 0.105357 20.5405 0.292893C20.728 0.48043 20.8334 0.734784 20.8334 1V17C20.8334 17.2652 20.728 17.5196 20.5405 17.7071C20.3529 17.8946 20.0986 18 19.8334 18H1.83337C1.56816 18 1.3138 17.8946 1.12627 17.7071C0.938731 17.5196 0.833374 17.2652 0.833374 17V1C0.833374 0.734784 0.938731 0.48043 1.12627 0.292893C1.3138 0.105357 1.56816 0 1.83337 0ZM18.8334 9H2.83337V16H18.8334V9ZM18.8334 5V2H2.83337V5H18.8334Z" fill="#979797"/>
</svg>
