<svg width="49" height="48" viewBox="0 0 49 48" fill="none" xmlns="http://www.w3.org/2000/svg">
<rect x="0.333252" width="48" height="48" rx="24" fill="#2CC25F" fill-opacity="0.1"/>
<path d="M15.3333 15H33.3333C33.5985 15 33.8528 15.1054 34.0404 15.2929C34.2279 15.4804 34.3333 15.7348 34.3333 16V32C34.3333 32.2652 34.2279 32.5196 34.0404 32.7071C33.8528 32.8946 33.5985 33 33.3333 33H15.3333C15.068 33 14.8137 32.8946 14.6261 32.7071C14.4386 32.5196 14.3333 32.2652 14.3333 32V16C14.3333 15.7348 14.4386 15.4804 14.6261 15.2929C14.8137 15.1054 15.068 15 15.3333 15ZM32.3333 24H16.3333V31H32.3333V24ZM32.3333 20V17H16.3333V20H32.3333Z" fill="#2CC25F"/>
</svg>
