<svg width="36" height="36" viewBox="0 0 36 36" fill="none" xmlns="http://www.w3.org/2000/svg">
<path opacity="0.1" fill-rule="evenodd" clip-rule="evenodd" d="M0 18C0 8.05888 8.05888 0 18 0C27.9411 0 36 8.05888 36 18C36 27.9411 27.9411 36 18 36C8.05888 36 0 27.9411 0 18Z" fill="#242B2E"/>
<path fill-rule="evenodd" clip-rule="evenodd" d="M18.0009 8.40039C15.3937 8.40039 15.0665 8.41179 14.0425 8.45839C13.0204 8.50519 12.3228 8.66699 11.7124 8.9044C11.081 9.1496 10.5454 9.4776 10.0118 10.0114C9.47781 10.545 9.1498 11.0806 8.9038 11.7118C8.6658 12.3224 8.50379 13.0202 8.45779 14.0418C8.41199 15.0659 8.39999 15.3933 8.39999 18.0005C8.39999 20.6077 8.41159 20.9339 8.45799 21.9579C8.50499 22.9799 8.6668 23.6775 8.904 24.288C9.1494 24.9194 9.47741 25.455 10.0112 25.9886C10.5446 26.5226 11.0802 26.8514 11.7112 27.0966C12.322 27.334 13.0198 27.4958 14.0417 27.5426C15.0657 27.5892 15.3927 27.6006 17.9997 27.6006C20.6071 27.6006 20.9333 27.5892 21.9573 27.5426C22.9793 27.4958 23.6778 27.334 24.2886 27.0966C24.9198 26.8514 25.4546 26.5226 25.988 25.9886C26.522 25.455 26.85 24.9194 27.096 24.2882C27.332 23.6775 27.494 22.9797 27.542 21.9581C27.588 20.9341 27.6 20.6077 27.6 18.0005C27.6 15.3933 27.588 15.0661 27.542 14.042C27.494 13.02 27.332 12.3224 27.096 11.712C26.85 11.0806 26.522 10.545 25.988 10.0114C25.454 9.4774 24.92 9.1494 24.288 8.9044C23.676 8.66699 22.9779 8.50519 21.9559 8.45839C20.9319 8.41179 20.6059 8.40039 17.9979 8.40039H18.0009ZM17.1396 10.1304C17.3952 10.13 17.6804 10.1304 18.0009 10.1304C20.5641 10.1304 20.8679 10.1396 21.8801 10.1856C22.8161 10.2284 23.3241 10.3848 23.6625 10.5162C24.1105 10.6902 24.4299 10.8982 24.7657 11.2342C25.1017 11.5702 25.3097 11.8902 25.4841 12.3382C25.6155 12.6762 25.7721 13.1842 25.8147 14.1202C25.8607 15.1322 25.8707 15.4362 25.8707 17.9983C25.8707 20.5603 25.8607 20.8643 25.8147 21.8763C25.7719 22.8123 25.6155 23.3203 25.4841 23.6583C25.3101 24.1063 25.1017 24.4253 24.7657 24.7611C24.4297 25.0971 24.1107 25.3051 23.6625 25.4791C23.3245 25.6111 22.8161 25.7671 21.8801 25.8099C20.8681 25.8559 20.5641 25.8659 18.0009 25.8659C15.4374 25.8659 15.1336 25.8559 14.1216 25.8099C13.1856 25.7667 12.6776 25.6103 12.339 25.4789C11.891 25.3049 11.571 25.0969 11.235 24.7609C10.899 24.4249 10.691 24.1057 10.5166 23.6575C10.3852 23.3195 10.2286 22.8115 10.186 21.8755C10.14 20.8635 10.1308 20.5595 10.1308 17.9959C10.1308 15.4322 10.14 15.1298 10.186 14.1178C10.2288 13.1818 10.3852 12.6738 10.5166 12.3354C10.6906 11.8874 10.899 11.5674 11.235 11.2314C11.571 10.8954 11.891 10.6874 12.339 10.513C12.6774 10.381 13.1856 10.225 14.1216 10.182C15.0072 10.142 15.3504 10.13 17.1396 10.128V10.1304ZM23.1253 11.7244C22.4893 11.7244 21.9733 12.2398 21.9733 12.876C21.9733 13.512 22.4893 14.028 23.1253 14.028C23.7613 14.028 24.2773 13.512 24.2773 12.876C24.2773 12.24 23.7613 11.7244 23.1253 11.7244ZM18.0009 13.0704C15.2783 13.0704 13.0709 15.2778 13.0709 18.0005C13.0709 20.7231 15.2783 22.9295 18.0009 22.9295C20.7235 22.9295 22.9302 20.7231 22.9302 18.0005C22.9302 15.2778 20.7235 13.0704 18.0009 13.0704ZM18.0009 14.8004C19.7681 14.8004 21.2009 16.233 21.2009 18.0005C21.2009 19.7677 19.7681 21.2005 18.0009 21.2005C16.2335 21.2005 14.8008 19.7677 14.8008 18.0005C14.8008 16.233 16.2335 14.8004 18.0009 14.8004Z" fill="#242B2E"/>
</svg>
