<svg width="20" height="18" viewBox="0 0 20 18" fill="none" xmlns="http://www.w3.org/2000/svg">
<path fill-rule="evenodd" clip-rule="evenodd" d="M14.9394 0C16.2804 0 17.5704 0.53 18.5194 1.481C19.4694 2.43 20.0004 3.71 20.0004 5.05V12.95C20.0004 15.74 17.7304 18 14.9394 18H5.06043C2.26943 18 0.000427246 15.74 0.000427246 12.95V5.05C0.000427246 2.26 2.25943 0 5.06043 0H14.9394ZM16.5304 6.53984L16.6104 6.45984C16.8494 6.16984 16.8494 5.74984 16.5994 5.45984C16.4604 5.31084 16.2694 5.21984 16.0704 5.19984C15.8604 5.18884 15.6604 5.25984 15.5094 5.39984L11.0004 8.99984C10.4204 9.48084 9.58942 9.48084 9.00042 8.99984L4.50042 5.39984C4.18942 5.16984 3.75942 5.19984 3.50042 5.46984C3.23042 5.73984 3.20042 6.16984 3.42942 6.46984L3.56042 6.59984L8.11042 10.1498C8.67042 10.5898 9.34942 10.8298 10.0604 10.8298C10.7694 10.8298 11.4604 10.5898 12.0194 10.1498L16.5304 6.53984Z" fill="#BE8637"/>
</svg>
