<svg width="21" height="21" viewBox="0 0 21 21" fill="none" xmlns="http://www.w3.org/2000/svg">
<path d="M2.5 2V1.5H2H0.5V0.5H3C3.13261 0.5 3.25978 0.552678 3.35355 0.646447C3.44732 0.740215 3.5 0.867392 3.5 1V13V13.5H4H16.438H16.8284L16.9231 13.1213L18.9231 5.12127L19.0784 4.5H18.438H6.5V3.5H19.72C19.796 3.5 19.871 3.51733 19.9393 3.55067C20.0076 3.58401 20.0674 3.63248 20.1142 3.69239C20.1609 3.75231 20.1934 3.8221 20.2091 3.89646C20.2249 3.97081 20.2235 4.04778 20.205 4.1215L20.2049 4.12173L17.705 14.1215C17.6779 14.2296 17.6155 14.3256 17.5276 14.3942C17.4397 14.4627 17.3315 14.5 17.22 14.5H3C2.86739 14.5 2.74021 14.4473 2.64645 14.3536C2.55268 14.2598 2.5 14.1326 2.5 14V2ZM4 20.5C3.60218 20.5 3.22064 20.342 2.93934 20.0607C2.65804 19.7794 2.5 19.3978 2.5 19C2.5 18.6022 2.65804 18.2206 2.93934 17.9393C3.22064 17.658 3.60218 17.5 4 17.5C4.39782 17.5 4.77936 17.658 5.06066 17.9393C5.34196 18.2206 5.5 18.6022 5.5 19C5.5 19.3978 5.34196 19.7794 5.06066 20.0607C4.77936 20.342 4.39782 20.5 4 20.5ZM16 20.5C15.6022 20.5 15.2206 20.342 14.9393 20.0607C14.658 19.7794 14.5 19.3978 14.5 19C14.5 18.6022 14.658 18.2206 14.9393 17.9393C15.2206 17.658 15.6022 17.5 16 17.5C16.3978 17.5 16.7794 17.658 17.0607 17.9393C17.342 18.2206 17.5 18.6022 17.5 19C17.5 19.3978 17.342 19.7794 17.0607 20.0607C16.7794 20.342 16.3978 20.5 16 20.5Z" fill="#242B2E" stroke="#242B2E"/>
</svg>
