<svg width="22" height="20" viewBox="0 0 22 20" fill="none" xmlns="http://www.w3.org/2000/svg">
<path d="M3.5 10V9.50001H3H1.29332L10.6633 0.981985L10.6635 0.981833C10.7556 0.898072 10.8755 0.851654 11 0.851654C11.1245 0.851654 11.2444 0.898072 11.3365 0.981833L11.3367 0.981985L20.7067 9.50001H19H18.5V10V19C18.5 19.1326 18.4473 19.2598 18.3536 19.3536C18.2598 19.4473 18.1326 19.5 18 19.5H4C3.86739 19.5 3.74021 19.4473 3.64645 19.3536C3.55268 19.2598 3.5 19.1326 3.5 19V10ZM4.5 18V18.5H5H17H17.5V18V8.15701V7.93581L17.3363 7.78702L11.3363 2.33302L11 2.02731L10.6637 2.33302L4.66368 7.78702L4.5 7.93581V8.15701V18Z" fill="#242B2E" stroke="#242B2E"/>
</svg>
