<svg width="23" height="20" viewBox="0 0 23 20" fill="none" xmlns="http://www.w3.org/2000/svg">
<path d="M13.322 8.429L13.7862 8.61479C13.9533 8.19736 14.5457 8.19595 14.714 8.61527L14.7148 8.61719C14.8705 9.00053 15.1038 9.34751 15.4001 9.63632C15.6964 9.92513 16.0493 10.1495 16.4364 10.2954C16.8236 10.4413 17.2368 10.5055 17.65 10.484C18.0632 10.4625 18.4675 10.3558 18.8375 10.1705C19.2075 9.98523 19.5351 9.72543 19.7998 9.40743C20.0645 9.08943 20.2606 8.72011 20.3757 8.32268C20.4908 7.92525 20.5225 7.5083 20.4687 7.09805C20.4151 6.68941 20.2779 6.29622 20.0657 5.94298L17.6429 1.74986L17.4986 1.5H17.21H4.79H4.789H4.50036L4.35602 1.74995L1.92302 5.96295L1.90559 5.99312L1.89252 6.02541C1.60882 6.72639 1.6003 7.50865 1.86868 8.21563C2.13706 8.92262 2.66254 9.50216 3.33994 9.83829C4.01734 10.1744 4.7967 10.2423 5.52202 10.0284C6.24734 9.81448 6.86513 9.33453 7.25172 8.68462L7.27169 8.65105L7.2862 8.61479C7.45321 8.19753 8.04519 8.19595 8.21379 8.61477C8.43618 9.17186 8.82046 9.6495 9.31703 9.98601C9.81374 10.3226 10.4 10.5025 11 10.5025C11.6 10.5025 12.1863 10.3226 12.683 9.98601C13.1797 9.64941 13.564 9.17159 13.7864 8.61429L13.322 8.429ZM13.322 8.429C13.1367 8.89342 12.8164 9.2916 12.4025 9.5721C11.9885 9.85261 11.5 10.0025 11 10.0025C10.5 10.0025 10.0115 9.85261 9.59753 9.5721C9.1836 9.2916 8.8633 8.89342 8.678 8.429L19.635 6.197C19.8131 6.49227 19.9281 6.82118 19.973 7.16305C20.0178 7.50493 19.9914 7.85238 19.8955 8.18357C19.7995 8.51477 19.6361 8.82253 19.4155 9.08753C19.1949 9.35253 18.9219 9.56903 18.6136 9.72343C18.3053 9.87782 17.9684 9.96677 17.6241 9.98468C17.2797 10.0026 16.9354 9.94909 16.6127 9.82752C16.2901 9.70595 15.996 9.51895 15.7491 9.27828C15.5022 9.0376 15.3078 8.74845 15.178 8.429C14.842 7.592 13.657 7.592 13.322 8.429ZM19.7227 10.826L19.5 10.9744V11.242V18V18.5H20H20.5V19.5H1.5V18.5H2H2.5V18V11.242V10.9746L2.27758 10.8261C1.73042 10.4609 1.28188 9.96626 0.971787 9.38608C0.661695 8.8059 0.499638 8.15813 0.500001 7.50028V7.5C0.500001 6.76297 0.699696 6.05531 1.0613 5.45499L1.06137 5.45503L1.06601 5.44701L3.77801 0.750013L3.77801 0.75C3.8219 0.673993 3.88501 0.610875 3.96102 0.56699C4.03702 0.523109 4.12324 0.500004 4.211 0.5C4.211 0.5 4.21101 0.5 4.21101 0.5H17.79C17.8778 0.500002 17.964 0.523106 18.04 0.56699C18.116 0.610859 18.1791 0.673948 18.2229 0.74992C18.223 0.749947 18.223 0.749974 18.223 0.750001L20.9249 5.43192L20.9249 5.43196L20.9296 5.4399C21.4599 6.32057 21.6303 7.37171 21.4055 8.3748C21.1807 9.3779 20.578 10.2558 19.7227 10.826ZM18.5 11.972V11.4128L17.9443 11.4751C17.3332 11.5437 16.7145 11.4703 16.1364 11.2606C15.5583 11.051 15.0364 10.7107 14.6113 10.2664L14.2499 9.88859L13.8886 10.2665C13.5155 10.6567 13.0672 10.9673 12.5707 11.1795C12.0743 11.3917 11.5399 11.501 11 11.501H10.9998C10.46 11.5013 9.92574 11.3922 9.42929 11.1803C8.93283 10.9684 8.48444 10.6582 8.11119 10.2682L7.74999 9.89092L7.3888 10.2683C6.96363 10.7125 6.44168 11.0525 5.8636 11.262C5.28551 11.4715 4.66687 11.5448 4.05584 11.4761L3.5 11.4137V11.973V18V18.5H4H18H18.5V18V11.973V11.972Z" fill="#242B2E" stroke="#242B2E"/>
</svg>
