<svg width="20" height="20" viewBox="0 0 20 20" fill="none" xmlns="http://www.w3.org/2000/svg">
<path d="M10 19.5C4.75314 19.5 0.5 15.2469 0.5 10C0.5 4.75314 4.75314 0.5 10 0.5C15.2469 0.5 19.5 4.75314 19.5 10C19.5 15.2469 15.2469 19.5 10 19.5ZM10 18.5C12.2543 18.5 14.4163 17.6045 16.0104 16.0104C17.6045 14.4163 18.5 12.2543 18.5 10C18.5 7.74566 17.6045 5.58365 16.0104 3.98959C14.4163 2.39553 12.2543 1.5 10 1.5C7.74566 1.5 5.58365 2.39553 3.98959 3.98959C2.39553 5.58365 1.5 7.74566 1.5 10C1.5 12.2543 2.39553 14.4163 3.98959 16.0104C5.58365 17.6045 7.74566 18.5 10 18.5ZM14.4722 10.5C14.3593 11.5095 13.9072 12.4568 13.182 13.182C12.3381 14.0259 11.1935 14.5 10 14.5C8.80653 14.5 7.66193 14.0259 6.81802 13.182C6.09281 12.4568 5.64069 11.5095 5.52785 10.5H6.53588C6.64317 11.2434 6.98776 11.9375 7.52513 12.4749C8.1815 13.1313 9.07174 13.5 10 13.5C10.9283 13.5 11.8185 13.1313 12.4749 12.4749C13.0122 11.9375 13.3568 11.2434 13.4641 10.5H14.4722Z" fill="#242B2E" stroke="#242B2E"/>
</svg>
