<svg width="22" height="20" viewBox="0 0 22 20" fill="none" xmlns="http://www.w3.org/2000/svg">
<path d="M3.5 10V9.5H3H1.29332L10.6633 0.98197L10.6635 0.981817C10.7556 0.898057 10.8755 0.851639 11 0.851639C11.1245 0.851639 11.2444 0.898057 11.3365 0.981817L11.3367 0.98197L20.7067 9.5H19H18.5V10V19C18.5 19.1326 18.4473 19.2598 18.3536 19.3535C18.2598 19.4473 18.1326 19.5 18 19.5H4C3.86739 19.5 3.74021 19.4473 3.64645 19.3535C3.55268 19.2598 3.5 19.1326 3.5 19V10ZM4.5 18V18.5H5H17H17.5V18V8.157V7.9358L17.3363 7.78701L11.3363 2.33301L11 2.0273L10.6637 2.33301L4.66368 7.78701L4.5 7.9358V8.157V18Z" fill="white" stroke="white"/>
</svg>
