<svg width="24" height="29" viewBox="0 0 24 29" fill="none" xmlns="http://www.w3.org/2000/svg">
<path d="M4 9.66659V8.33325C4 6.21152 4.84285 4.17669 6.34315 2.6764C7.84344 1.17611 9.87827 0.333252 12 0.333252C14.1217 0.333252 16.1566 1.17611 17.6569 2.6764C19.1571 4.17669 20 6.21152 20 8.33325V9.66659H22.6667C23.0203 9.66659 23.3594 9.80706 23.6095 10.0571C23.8595 10.3072 24 10.6463 24 10.9999V26.9999C24 27.3535 23.8595 27.6927 23.6095 27.9427C23.3594 28.1928 23.0203 28.3333 22.6667 28.3333H1.33333C0.979711 28.3333 0.640573 28.1928 0.390524 27.9427C0.140476 27.6927 0 27.3535 0 26.9999V10.9999C0 10.6463 0.140476 10.3072 0.390524 10.0571C0.640573 9.80706 0.979711 9.66659 1.33333 9.66659H4ZM21.3333 12.3333H2.66667V25.6666H21.3333V12.3333ZM10.6667 19.9759C10.1583 19.6824 9.76097 19.2293 9.53632 18.687C9.31168 18.1447 9.27227 17.5434 9.4242 16.9763C9.57613 16.4093 9.91092 15.9083 10.3766 15.5509C10.8424 15.1936 11.413 14.9999 12 14.9999C12.587 14.9999 13.1576 15.1936 13.6234 15.5509C14.0891 15.9083 14.4239 16.4093 14.5758 16.9763C14.7277 17.5434 14.6883 18.1447 14.4637 18.687C14.239 19.2293 13.8417 19.6824 13.3333 19.9759V22.9999H10.6667V19.9759ZM6.66667 9.66659H17.3333V8.33325C17.3333 6.91876 16.7714 5.56221 15.7712 4.56202C14.771 3.56182 13.4145 2.99992 12 2.99992C10.5855 2.99992 9.22896 3.56182 8.22876 4.56202C7.22857 5.56221 6.66667 6.91876 6.66667 8.33325V9.66659Z" fill="#E7565E"/>
</svg>
