<svg width="24" height="28" viewBox="0 0 24 28" fill="none" xmlns="http://www.w3.org/2000/svg">
<path d="M5.33333 11.3334H22.6667C23.0203 11.3334 23.3594 11.4738 23.6095 11.7239C23.8595 11.9739 24 12.3131 24 12.6667V26C24 26.3537 23.8595 26.6928 23.6095 26.9428C23.3594 27.1929 23.0203 27.3334 22.6667 27.3334H1.33333C0.979711 27.3334 0.640573 27.1929 0.390524 26.9428C0.140476 26.6928 0 26.3537 0 26V12.6667C0 12.3131 0.140476 11.9739 0.390524 11.7239C0.640573 11.4738 0.979711 11.3334 1.33333 11.3334H2.66667V10C2.66591 7.89698 3.37544 5.8553 4.68025 4.20595C5.98507 2.55661 7.80867 1.39628 9.85547 0.913055C11.9023 0.429831 14.0523 0.652037 15.957 1.54365C17.8617 2.43527 19.4094 3.94403 20.3493 5.82537L17.964 7.01737C17.2927 5.6734 16.1871 4.59557 14.8264 3.95863C13.4658 3.3217 11.9299 3.16301 10.4678 3.50827C9.00573 3.85354 7.7031 4.68254 6.77114 5.86085C5.83918 7.03917 5.33253 8.49772 5.33333 10V11.3334ZM2.66667 14V24.6667H21.3333V14H2.66667ZM9.33333 18H14.6667V20.6667H9.33333V18Z" fill="#E7565E"/>
</svg>
