<svg width="16" height="21" viewBox="0 0 16 21" fill="none" xmlns="http://www.w3.org/2000/svg">
<path d="M15.5 20.5H14.5V19C14.5 18.0717 14.1313 17.1815 13.4749 16.5251C12.8185 15.8687 11.9283 15.5 11 15.5H5C4.07174 15.5 3.1815 15.8687 2.52513 16.5251C1.86875 17.1815 1.5 18.0717 1.5 19V20.5H0.5V19C0.5 17.8065 0.974106 16.6619 1.81802 15.818C2.66193 14.9741 3.80653 14.5 5 14.5H11C12.1935 14.5 13.3381 14.9741 14.182 15.818C15.0259 16.6619 15.5 17.8065 15.5 19V20.5ZM8 11.5C7.27773 11.5 6.56253 11.3577 5.89524 11.0813C5.22795 10.8049 4.62163 10.3998 4.11091 9.88909C3.60019 9.37836 3.19506 8.77205 2.91866 8.10476C2.64226 7.43747 2.5 6.72227 2.5 6C2.5 5.27773 2.64226 4.56253 2.91866 3.89524C3.19506 3.22795 3.60019 2.62163 4.11091 2.11091C4.62163 1.60019 5.22795 1.19506 5.89524 0.918662C6.56253 0.642262 7.27773 0.5 8 0.5C9.45869 0.5 10.8576 1.07946 11.8891 2.11091C12.9205 3.14236 13.5 4.54131 13.5 6C13.5 7.45869 12.9205 8.85764 11.8891 9.88909C10.8576 10.9205 9.45869 11.5 8 11.5ZM8 10.5C9.19347 10.5 10.3381 10.0259 11.182 9.18198C12.0259 8.33807 12.5 7.19347 12.5 6C12.5 4.80653 12.0259 3.66193 11.182 2.81802C10.3381 1.97411 9.19347 1.5 8 1.5C6.80653 1.5 5.66193 1.97411 4.81802 2.81802C3.97411 3.66193 3.5 4.80653 3.5 6C3.5 7.19347 3.97411 8.33807 4.81802 9.18198C5.66193 10.0259 6.80653 10.5 8 10.5Z" fill="white" stroke="white"/>
</svg>
