<svg width="22" height="21" viewBox="0 0 22 21" fill="none" xmlns="http://www.w3.org/2000/svg">
<path d="M9.89997 0.0996094L19.799 1.51461L21.213 11.4146L12.021 20.6066C11.8334 20.7941 11.5791 20.8994 11.314 20.8994C11.0488 20.8994 10.7945 20.7941 10.607 20.6066L0.706971 10.7066C0.5195 10.5191 0.414185 10.2648 0.414185 9.99961C0.414185 9.73444 0.5195 9.48014 0.706971 9.29261L9.89997 0.0996094ZM12.728 8.58561C12.9137 8.7713 13.1342 8.91858 13.3769 9.01905C13.6196 9.11952 13.8797 9.17121 14.1423 9.17116C14.405 9.17111 14.665 9.11934 14.9077 9.01878C15.1503 8.91823 15.3708 8.77086 15.5565 8.58511C15.7422 8.39935 15.8894 8.17884 15.9899 7.93617C16.0904 7.69349 16.1421 7.43341 16.142 7.17076C16.142 6.90811 16.0902 6.64804 15.9896 6.4054C15.8891 6.16276 15.7417 5.9423 15.556 5.75661C15.3702 5.57092 15.1497 5.42364 14.907 5.32317C14.6644 5.2227 14.4043 5.17101 14.1416 5.17106C13.6112 5.17115 13.1025 5.38196 12.7275 5.75711C12.3525 6.13226 12.1418 6.64102 12.1419 7.17146C12.142 7.70191 12.3528 8.21059 12.728 8.58561Z" fill="#6B8089"/>
</svg>
