<svg width="20" height="20" viewBox="0 0 20 20" fill="none" xmlns="http://www.w3.org/2000/svg">
<path d="M0.625 18.6797C0.625 19.0945 0.960156 19.4297 1.375 19.4297H18.625C19.0398 19.4297 19.375 19.0945 19.375 18.6797V8.83594H0.625V18.6797ZM18.625 2.36719H14.6875V0.867188C14.6875 0.764062 14.6031 0.679688 14.5 0.679688H13.1875C13.0844 0.679688 13 0.764062 13 0.867188V2.36719H7V0.867188C7 0.764062 6.91563 0.679688 6.8125 0.679688H5.5C5.39687 0.679688 5.3125 0.764062 5.3125 0.867188V2.36719H1.375C0.960156 2.36719 0.625 2.70234 0.625 3.11719V7.24219H19.375V3.11719C19.375 2.70234 19.0398 2.36719 18.625 2.36719Z" fill="#0A5DD9"/>
</svg>
