<svg width="12" height="12" viewBox="0 0 12 12" fill="none" xmlns="http://www.w3.org/2000/svg">
<path d="M11.1905 5.94488C11.1905 5.56745 11.1601 5.19003 11.0994 4.82031H5.94434V6.9539H8.89767C8.77619 7.63943 8.3814 8.25563 7.8044 8.64075V10.0272H9.56577C10.5983 9.06439 11.1905 7.63943 11.1905 5.94488Z" fill="#4285F4"/>
<path d="M5.94447 11.3676C7.41734 11.3676 8.66245 10.8747 9.56591 10.0274L7.80454 8.64094C7.31105 8.97985 6.68091 9.17241 5.94447 9.17241C4.51716 9.17241 3.31001 8.19419 2.87726 6.88477H1.06274V8.31743C1.98898 10.1891 3.87942 11.3676 5.94447 11.3676Z" fill="#34A853"/>
<path d="M2.87746 6.88484C2.64966 6.19931 2.64966 5.45217 2.87746 4.75895V3.33398H1.06266C0.280546 4.89759 0.280546 6.74619 1.06266 8.3098L2.87746 6.88484Z" fill="#FBBC04"/>
<path d="M5.94447 2.47094C6.72646 2.45553 7.47808 2.75593 8.0399 3.30281L9.60387 1.71609C8.6093 0.776388 7.30346 0.260321 5.94447 0.275726C3.87942 0.275726 1.98898 1.46191 1.06274 3.33362L2.87726 4.76628C3.31001 3.44915 4.51716 2.47094 5.94447 2.47094Z" fill="#EA4335"/>
</svg>
