<svg width="21" height="20" viewBox="0 0 21 20" fill="none" xmlns="http://www.w3.org/2000/svg">
<path d="M10.6667 7C9.87104 7 9.10798 7.31607 8.54537 7.87868C7.98276 8.44129 7.66669 9.20435 7.66669 10C7.66669 10.7956 7.98276 11.5587 8.54537 12.1213C9.10798 12.6839 9.87104 13 10.6667 13C11.4623 13 12.2254 12.6839 12.788 12.1213C13.3506 11.5587 13.6667 10.7956 13.6667 10C13.6667 9.20435 13.3506 8.44129 12.788 7.87868C12.2254 7.31607 11.4623 7 10.6667 7ZM10.6667 5C11.9928 5 13.2645 5.52678 14.2022 6.46447C15.1399 7.40215 15.6667 8.67392 15.6667 10C15.6667 11.3261 15.1399 12.5979 14.2022 13.5355C13.2645 14.4732 11.9928 15 10.6667 15C9.3406 15 8.06884 14.4732 7.13115 13.5355C6.19347 12.5979 5.66669 11.3261 5.66669 10C5.66669 8.67392 6.19347 7.40215 7.13115 6.46447C8.06884 5.52678 9.3406 5 10.6667 5ZM17.1667 4.75C17.1667 5.08152 17.035 5.39946 16.8006 5.63388C16.5662 5.8683 16.2482 6 15.9167 6C15.5852 6 15.2672 5.8683 15.0328 5.63388C14.7984 5.39946 14.6667 5.08152 14.6667 4.75C14.6667 4.41848 14.7984 4.10054 15.0328 3.86612C15.2672 3.6317 15.5852 3.5 15.9167 3.5C16.2482 3.5 16.5662 3.6317 16.8006 3.86612C17.035 4.10054 17.1667 4.41848 17.1667 4.75ZM10.6667 2C8.19269 2 7.78869 2.007 6.63769 2.058C5.85369 2.095 5.32769 2.2 4.83969 2.39C4.40569 2.558 4.09269 2.759 3.75969 3.093C3.44669 3.3954 3.20604 3.76458 3.05569 4.173C2.86569 4.663 2.76069 5.188 2.72469 5.971C2.67269 7.075 2.66669 7.461 2.66669 10C2.66669 12.474 2.67369 12.878 2.72469 14.029C2.76169 14.812 2.86669 15.339 3.05569 15.826C3.22569 16.261 3.42569 16.574 3.75769 16.906C4.09469 17.242 4.40769 17.443 4.83769 17.609C5.33169 17.8 5.85769 17.906 6.63769 17.942C7.74169 17.994 8.12769 18 10.6667 18C13.1407 18 13.5447 17.993 14.6957 17.942C15.4777 17.905 16.0047 17.8 16.4927 17.611C16.9257 17.442 17.2407 17.241 17.5727 16.909C17.9097 16.572 18.1107 16.259 18.2767 15.829C18.4667 15.336 18.5727 14.809 18.6087 14.029C18.6607 12.925 18.6667 12.539 18.6667 10C18.6667 7.526 18.6597 7.122 18.6087 5.971C18.5717 5.189 18.4667 4.661 18.2767 4.173C18.126 3.765 17.8858 3.39596 17.5737 3.093C17.2714 2.77985 16.9022 2.53917 16.4937 2.389C16.0037 2.199 15.4777 2.094 14.6957 2.058C13.5917 2.006 13.2057 2 10.6667 2ZM10.6667 0C13.3837 0 13.7227 0.00999994 14.7887 0.0599999C15.8537 0.11 16.5787 0.277 17.2167 0.525C17.8767 0.779 18.4327 1.123 18.9887 1.678C19.4972 2.1779 19.8906 2.78259 20.1417 3.45C20.3887 4.087 20.5567 4.813 20.6067 5.878C20.6537 6.944 20.6667 7.283 20.6667 10C20.6667 12.717 20.6567 13.056 20.6067 14.122C20.5567 15.187 20.3887 15.912 20.1417 16.55C19.8914 17.2178 19.4978 17.8226 18.9887 18.322C18.4886 18.8303 17.884 19.2238 17.2167 19.475C16.5797 19.722 15.8537 19.89 14.7887 19.94C13.7227 19.987 13.3837 20 10.6667 20C7.94969 20 7.61069 19.99 6.54469 19.94C5.47969 19.89 4.75469 19.722 4.11669 19.475C3.44901 19.2245 2.84421 18.8309 2.34469 18.322C1.83609 17.8222 1.44262 17.2175 1.19169 16.55C0.943687 15.913 0.776687 15.187 0.726687 14.122C0.679687 13.056 0.666687 12.717 0.666687 10C0.666687 7.283 0.676687 6.944 0.726687 5.878C0.776687 4.812 0.943687 4.088 1.19169 3.45C1.44192 2.78218 1.83549 2.17732 2.34469 1.678C2.84436 1.16923 3.44912 0.775729 4.11669 0.525C4.75469 0.277 5.47869 0.11 6.54469 0.0599999C7.61069 0.0129999 7.94969 0 10.6667 0Z" fill="#BE8637"/>
</svg>
