<svg width="38" height="38" viewBox="0 0 38 38" fill="none" xmlns="http://www.w3.org/2000/svg">
<path d="M19 0.666687C23.9811 0.666687 24.6026 0.68502 26.557 0.776687C28.5095 0.868354 29.8386 1.17452 31.0083 1.62919C32.2183 2.09485 33.2376 2.72552 34.257 3.74302C35.1892 4.6595 35.9105 5.7681 36.3708 6.99169C36.8236 8.15952 37.1316 9.49052 37.2233 11.443C37.3095 13.3974 37.3333 14.0189 37.3333 19C37.3333 23.9812 37.315 24.6027 37.2233 26.557C37.1316 28.5095 36.8236 29.8387 36.3708 31.0084C35.9119 32.2326 35.1903 33.3415 34.257 34.257C33.3402 35.1889 32.2317 35.9102 31.0083 36.3709C29.8405 36.8237 28.5095 37.1317 26.557 37.2234C24.6026 37.3095 23.9811 37.3334 19 37.3334C14.0188 37.3334 13.3973 37.315 11.443 37.2234C9.49046 37.1317 8.16129 36.8237 6.99163 36.3709C5.76756 35.9116 4.65876 35.1901 3.74296 34.257C2.81054 33.3407 2.08917 32.232 1.62913 31.0084C1.17446 29.8405 0.868293 28.5095 0.776626 26.557C0.690459 24.6027 0.666626 23.9812 0.666626 19C0.666626 14.0189 0.684959 13.3974 0.776626 11.443C0.868293 9.48869 1.17446 8.16135 1.62913 6.99169C2.08789 5.76735 2.80943 4.65844 3.74296 3.74302C4.65902 2.81028 5.76774 2.08886 6.99163 1.62919C8.16129 1.17452 9.48863 0.868354 11.443 0.776687C13.3973 0.69052 14.0188 0.666687 19 0.666687ZM19 9.83335C16.5688 9.83335 14.2372 10.7991 12.5181 12.5182C10.7991 14.2373 9.83329 16.5689 9.83329 19C9.83329 21.4312 10.7991 23.7627 12.5181 25.4818C14.2372 27.2009 16.5688 28.1667 19 28.1667C21.4311 28.1667 23.7627 27.2009 25.4818 25.4818C27.2009 23.7627 28.1666 21.4312 28.1666 19C28.1666 16.5689 27.2009 14.2373 25.4818 12.5182C23.7627 10.7991 21.4311 9.83335 19 9.83335ZM30.9166 9.37502C30.9166 8.76723 30.6752 8.18434 30.2454 7.75457C29.8156 7.3248 29.2327 7.08335 28.625 7.08335C28.0172 7.08335 27.4343 7.3248 27.0045 7.75457C26.5747 8.18434 26.3333 8.76723 26.3333 9.37502C26.3333 9.98281 26.5747 10.5657 27.0045 10.9955C27.4343 11.4252 28.0172 11.6667 28.625 11.6667C29.2327 11.6667 29.8156 11.4252 30.2454 10.9955C30.6752 10.5657 30.9166 9.98281 30.9166 9.37502ZM19 13.5C20.4586 13.5 21.8576 14.0795 22.889 15.1109C23.9205 16.1424 24.5 17.5413 24.5 19C24.5 20.4587 23.9205 21.8577 22.889 22.8891C21.8576 23.9206 20.4586 24.5 19 24.5C17.5413 24.5 16.1423 23.9206 15.1109 22.8891C14.0794 21.8577 13.5 20.4587 13.5 19C13.5 17.5413 14.0794 16.1424 15.1109 15.1109C16.1423 14.0795 17.5413 13.5 19 13.5Z" fill="#242B2E"/>
</svg>
