<svg width="18" height="22" viewBox="0 0 18 22" fill="none" xmlns="http://www.w3.org/2000/svg">
<path d="M9.00001 0.554688C6.81276 0.557268 4.71584 1.42729 3.16923 2.97391C1.62261 4.52052 0.752589 6.61744 0.750009 8.80469C0.747389 10.5921 1.33124 12.331 2.41201 13.7547C2.41201 13.7547 2.63701 14.0509 2.67376 14.0937L9.00001 21.5547L15.3293 14.0899C15.3623 14.0502 15.588 13.7547 15.588 13.7547L15.5888 13.7524C16.669 12.3294 17.2526 10.5913 17.25 8.80469C17.2474 6.61744 16.3774 4.52052 14.8308 2.97391C13.2842 1.42729 11.1873 0.557268 9.00001 0.554688ZM9.00001 11.8047C8.40666 11.8047 7.82665 11.6287 7.3333 11.2991C6.83995 10.9695 6.45543 10.5009 6.22837 9.95274C6.00131 9.40456 5.9419 8.80136 6.05765 8.21942C6.17341 7.63747 6.45913 7.10292 6.87869 6.68337C7.29825 6.26381 7.83279 5.97809 8.41474 5.86233C8.99668 5.74658 9.59988 5.80599 10.1481 6.03305C10.6962 6.26011 11.1648 6.64463 11.4944 7.13798C11.8241 7.63132 12 8.21134 12 8.80469C11.999 9.60003 11.6826 10.3625 11.1202 10.9249C10.5578 11.4873 9.79535 11.8037 9.00001 11.8047Z" fill="#0A5DD9"/>
</svg>
