<svg width="36" height="28" viewBox="0 0 36 28" fill="none" xmlns="http://www.w3.org/2000/svg">
<path d="M32.834 2.358C34.894 4.546 36 7 36 10.978C36 17.978 31.086 24.252 23.94 27.354L22.154 24.598C28.824 20.99 30.128 16.308 30.648 13.356C29.574 13.912 28.168 14.106 26.79 13.978C23.182 13.644 20.338 10.682 20.338 7C20.338 5.14348 21.0755 3.36301 22.3882 2.05025C23.701 0.737498 25.4815 0 27.338 0C29.484 0 31.536 0.98 32.834 2.358ZM12.834 2.358C14.894 4.546 16 7 16 10.978C16 17.978 11.086 24.252 3.93997 27.354L2.15397 24.598C8.82397 20.99 10.128 16.308 10.648 13.356C9.57397 13.912 8.16797 14.106 6.78997 13.978C3.18197 13.644 0.339966 10.682 0.339966 7C0.339966 5.14348 1.07746 3.36301 2.39022 2.05025C3.70297 0.737498 5.48345 0 7.33997 0C9.48597 0 11.538 0.98 12.836 2.358H12.834Z" fill="#6B8089"/>
</svg>
