<svg width="28" height="25" viewBox="0 0 28 25" fill="none" xmlns="http://www.w3.org/2000/svg">
<path d="M20 0C24.0506 0 27.3333 3.33333 27.3333 8C27.3333 17.3333 17.3333 22.6667 14 24.6667C10.6666 22.6667 0.666626 17.3333 0.666626 8C0.666626 3.33333 3.99996 0 7.99996 0C10.48 0 12.6666 1.33333 14 2.66667C15.3333 1.33333 17.52 0 20 0ZM15.2453 20.8053C16.42 20.064 17.48 19.3267 18.472 18.5373C22.4466 15.3773 24.6666 11.924 24.6666 8C24.6666 4.85333 22.6173 2.66667 20 2.66667C18.5653 2.66667 17.0133 3.42667 15.8853 4.552L14 6.43733L12.1146 4.552C10.9866 3.42667 9.43463 2.66667 7.99996 2.66667C5.41329 2.66667 3.33329 4.87467 3.33329 8C3.33329 11.9253 5.55463 15.3773 9.52663 18.5373C10.52 19.3267 11.58 20.064 12.7546 20.804C13.1533 21.056 13.548 21.2973 14 21.5667C14.452 21.2973 14.8466 21.056 15.2453 20.8053Z" fill="#686868"/>
</svg>
