<svg width="22" height="21" viewBox="0 0 22 21" fill="none" xmlns="http://www.w3.org/2000/svg">
<path d="M4.5918 7H18.5298L19.0298 5H6.5918V3H20.3118C20.4638 3 20.6138 3.03466 20.7504 3.10134C20.887 3.16801 21.0066 3.26495 21.1001 3.38479C21.1936 3.50462 21.2586 3.6442 21.2901 3.79291C21.3216 3.94162 21.3187 4.09555 21.2818 4.243L18.7818 14.243C18.7276 14.4592 18.6027 14.6512 18.427 14.7883C18.2513 14.9255 18.0347 15 17.8118 15H3.5918C3.32658 15 3.07223 14.8946 2.88469 14.7071C2.69715 14.5196 2.5918 14.2652 2.5918 14V2H0.591797V0H3.5918C3.85701 0 4.11137 0.105357 4.2989 0.292893C4.48644 0.48043 4.5918 0.734784 4.5918 1V7ZM4.5918 21C4.06136 21 3.55266 20.7893 3.17758 20.4142C2.80251 20.0391 2.5918 19.5304 2.5918 19C2.5918 18.4696 2.80251 17.9609 3.17758 17.5858C3.55266 17.2107 4.06136 17 4.5918 17C5.12223 17 5.63094 17.2107 6.00601 17.5858C6.38108 17.9609 6.5918 18.4696 6.5918 19C6.5918 19.5304 6.38108 20.0391 6.00601 20.4142C5.63094 20.7893 5.12223 21 4.5918 21ZM16.5918 21C16.0614 21 15.5527 20.7893 15.1776 20.4142C14.8025 20.0391 14.5918 19.5304 14.5918 19C14.5918 18.4696 14.8025 17.9609 15.1776 17.5858C15.5527 17.2107 16.0614 17 16.5918 17C17.1222 17 17.6309 17.2107 18.006 17.5858C18.3811 17.9609 18.5918 18.4696 18.5918 19C18.5918 19.5304 18.3811 20.0391 18.006 20.4142C17.6309 20.7893 17.1222 21 16.5918 21Z" fill="#BE8637"/>
</svg>
