<svg width="22" height="21" viewBox="0 0 22 21" fill="none" xmlns="http://www.w3.org/2000/svg">
<path d="M4.68359 7H18.6216L19.1216 5H6.68359V3H20.4036C20.5556 3 20.7056 3.03466 20.8422 3.10134C20.9788 3.16801 21.0984 3.26495 21.1919 3.38479C21.2854 3.50462 21.3504 3.6442 21.3819 3.79291C21.4134 3.94162 21.4105 4.09555 21.3736 4.243L18.8736 14.243C18.8194 14.4592 18.6945 14.6512 18.5188 14.7883C18.3431 14.9255 18.1265 15 17.9036 15H3.68359C3.41838 15 3.16402 14.8946 2.97649 14.7071C2.78895 14.5196 2.68359 14.2652 2.68359 14V2H0.683594V0H3.68359C3.94881 0 4.20316 0.105357 4.3907 0.292893C4.57824 0.48043 4.68359 0.734784 4.68359 1V7ZM4.68359 21C4.15316 21 3.64445 20.7893 3.26938 20.4142C2.89431 20.0391 2.68359 19.5304 2.68359 19C2.68359 18.4696 2.89431 17.9609 3.26938 17.5858C3.64445 17.2107 4.15316 17 4.68359 17C5.21403 17 5.72273 17.2107 6.09781 17.5858C6.47288 17.9609 6.68359 18.4696 6.68359 19C6.68359 19.5304 6.47288 20.0391 6.09781 20.4142C5.72273 20.7893 5.21403 21 4.68359 21ZM16.6836 21C16.1532 21 15.6445 20.7893 15.2694 20.4142C14.8943 20.0391 14.6836 19.5304 14.6836 19C14.6836 18.4696 14.8943 17.9609 15.2694 17.5858C15.6445 17.2107 16.1532 17 16.6836 17C17.214 17 17.7227 17.2107 18.0978 17.5858C18.4729 17.9609 18.6836 18.4696 18.6836 19C18.6836 19.5304 18.4729 20.0391 18.0978 20.4142C17.7227 20.7893 17.214 21 16.6836 21Z" fill="white"/>
</svg>
