<svg width="20" height="21" viewBox="0 0 20 21" fill="none" xmlns="http://www.w3.org/2000/svg">
<path d="M10 7.90601C9.20435 7.90601 8.44129 8.22208 7.87868 8.78469C7.31607 9.34729 7 10.1104 7 10.906C7 11.7017 7.31607 12.4647 7.87868 13.0273C8.44129 13.5899 9.20435 13.906 10 13.906C10.7956 13.906 11.5587 13.5899 12.1213 13.0273C12.6839 12.4647 13 11.7017 13 10.906C13 10.1104 12.6839 9.34729 12.1213 8.78469C11.5587 8.22208 10.7956 7.90601 10 7.90601ZM10 5.90601C11.3261 5.90601 12.5979 6.43279 13.5355 7.37047C14.4732 8.30815 15 9.57992 15 10.906C15 12.2321 14.4732 13.5039 13.5355 14.4415C12.5979 15.3792 11.3261 15.906 10 15.906C8.67392 15.906 7.40215 15.3792 6.46447 14.4415C5.52678 13.5039 5 12.2321 5 10.906C5 9.57992 5.52678 8.30815 6.46447 7.37047C7.40215 6.43279 8.67392 5.90601 10 5.90601ZM16.5 5.65601C16.5 5.98753 16.3683 6.30547 16.1339 6.53989C15.8995 6.77431 15.5815 6.90601 15.25 6.90601C14.9185 6.90601 14.6005 6.77431 14.3661 6.53989C14.1317 6.30547 14 5.98753 14 5.65601C14 5.32449 14.1317 5.00654 14.3661 4.77212C14.6005 4.5377 14.9185 4.40601 15.25 4.40601C15.5815 4.40601 15.8995 4.5377 16.1339 4.77212C16.3683 5.00654 16.5 5.32449 16.5 5.65601ZM10 2.90601C7.526 2.90601 7.122 2.91301 5.971 2.96401C5.187 3.00101 4.661 3.10601 4.173 3.29601C3.739 3.46401 3.426 3.66501 3.093 3.99901C2.78001 4.3014 2.53935 4.67059 2.389 5.07901C2.199 5.56901 2.094 6.09401 2.058 6.87701C2.006 7.98101 2 8.36701 2 10.906C2 13.38 2.007 13.784 2.058 14.935C2.095 15.718 2.2 16.245 2.389 16.732C2.559 17.167 2.759 17.48 3.091 17.812C3.428 18.148 3.741 18.349 4.171 18.515C4.665 18.706 5.191 18.812 5.971 18.848C7.075 18.9 7.461 18.906 10 18.906C12.474 18.906 12.878 18.899 14.029 18.848C14.811 18.811 15.338 18.706 15.826 18.517C16.259 18.348 16.574 18.147 16.906 17.815C17.243 17.478 17.444 17.165 17.61 16.735C17.8 16.242 17.906 15.715 17.942 14.935C17.994 13.831 18 13.445 18 10.906C18 8.43201 17.993 8.02801 17.942 6.87701C17.905 6.09501 17.8 5.56701 17.61 5.07901C17.4593 4.67101 17.2191 4.30197 16.907 3.99901C16.6047 3.68585 16.2355 3.44517 15.827 3.29501C15.337 3.10501 14.811 3.00001 14.029 2.96401C12.925 2.91201 12.539 2.90601 10 2.90601ZM10 0.906006C12.717 0.906006 13.056 0.916006 14.122 0.966006C15.187 1.01601 15.912 1.18301 16.55 1.43101C17.21 1.68501 17.766 2.02901 18.322 2.58401C18.8305 3.0839 19.224 3.68859 19.475 4.35601C19.722 4.99301 19.89 5.71901 19.94 6.78401C19.987 7.85001 20 8.18901 20 10.906C20 13.623 19.99 13.962 19.94 15.028C19.89 16.093 19.722 16.818 19.475 17.456C19.2247 18.1238 18.8311 18.7286 18.322 19.228C17.822 19.7363 17.2173 20.1298 16.55 20.381C15.913 20.628 15.187 20.796 14.122 20.846C13.056 20.893 12.717 20.906 10 20.906C7.283 20.906 6.944 20.896 5.878 20.846C4.813 20.796 4.088 20.628 3.45 20.381C2.78233 20.1305 2.17753 19.7369 1.678 19.228C1.16941 18.7282 0.775931 18.1235 0.525 17.456C0.277 16.819 0.11 16.093 0.0599999 15.028C0.0129999 13.962 0 13.623 0 10.906C0 8.18901 0.00999994 7.85001 0.0599999 6.78401C0.11 5.71801 0.277 4.99401 0.525 4.35601C0.775236 3.68819 1.1688 3.08333 1.678 2.58401C2.17767 2.07524 2.78243 1.68174 3.45 1.43101C4.088 1.18301 4.812 1.01601 5.878 0.966006C6.944 0.919006 7.283 0.906006 10 0.906006Z" fill="#242B2E"/>
</svg>
