<svg width="38" height="38" viewBox="0 0 38 38" fill="none" xmlns="http://www.w3.org/2000/svg">
<path d="M19 0.666748C23.9812 0.666748 24.6027 0.685081 26.557 0.776748C28.5095 0.868415 29.8387 1.17458 31.0084 1.62925C32.2184 2.09491 33.2377 2.72558 34.257 3.74308C35.1893 4.65956 35.9106 5.76816 36.3709 6.99175C36.8237 8.15958 37.1317 9.49058 37.2234 11.4431C37.3095 13.3974 37.3334 14.0189 37.3334 19.0001C37.3334 23.9812 37.315 24.6027 37.2234 26.5571C37.1317 28.5096 36.8237 29.8387 36.3709 31.0084C35.9119 32.2327 35.1904 33.3415 34.257 34.2571C33.3403 35.189 32.2318 35.9103 31.0084 36.3709C29.8405 36.8237 28.5095 37.1317 26.557 37.2234C24.6027 37.3096 23.9812 37.3334 19 37.3334C14.0189 37.3334 13.3974 37.3151 11.443 37.2234C9.49052 37.1317 8.16135 36.8237 6.99169 36.3709C5.76762 35.9116 4.65882 35.1901 3.74302 34.2571C2.8106 33.3408 2.08923 32.2321 1.62919 31.0084C1.17452 29.8406 0.868354 28.5096 0.776687 26.5571C0.69052 24.6027 0.666687 23.9812 0.666687 19.0001C0.666687 14.0189 0.68502 13.3974 0.776687 11.4431C0.868354 9.48875 1.17452 8.16141 1.62919 6.99175C2.08795 5.76741 2.80949 4.6585 3.74302 3.74308C4.65908 2.81034 5.76781 2.08892 6.99169 1.62925C8.16135 1.17458 9.48869 0.868415 11.443 0.776748C13.3974 0.690581 14.0189 0.666748 19 0.666748ZM19 9.83341C16.5689 9.83341 14.2373 10.7992 12.5182 12.5183C10.7991 14.2374 9.83335 16.5689 9.83335 19.0001C9.83335 21.4312 10.7991 23.7628 12.5182 25.4819C14.2373 27.201 16.5689 28.1667 19 28.1667C21.4312 28.1667 23.7627 27.201 25.4818 25.4819C27.2009 23.7628 28.1667 21.4312 28.1667 19.0001C28.1667 16.5689 27.2009 14.2374 25.4818 12.5183C23.7627 10.7992 21.4312 9.83341 19 9.83341ZM30.9167 9.37508C30.9167 8.76729 30.6752 8.1844 30.2455 7.75463C29.8157 7.32486 29.2328 7.08341 28.625 7.08341C28.0172 7.08341 27.4343 7.32486 27.0046 7.75463C26.5748 8.1844 26.3334 8.76729 26.3334 9.37508C26.3334 9.98287 26.5748 10.5658 27.0046 10.9955C27.4343 11.4253 28.0172 11.6667 28.625 11.6667C29.2328 11.6667 29.8157 11.4253 30.2455 10.9955C30.6752 10.5658 30.9167 9.98287 30.9167 9.37508ZM19 13.5001C20.4587 13.5001 21.8577 14.0795 22.8891 15.111C23.9206 16.1424 24.5 17.5414 24.5 19.0001C24.5 20.4588 23.9206 21.8577 22.8891 22.8892C21.8577 23.9206 20.4587 24.5001 19 24.5001C17.5413 24.5001 16.1424 23.9206 15.1109 22.8892C14.0795 21.8577 13.5 20.4588 13.5 19.0001C13.5 17.5414 14.0795 16.1424 15.1109 15.111C16.1424 14.0795 17.5413 13.5001 19 13.5001Z" fill="#242B2E"/>
</svg>
